<mxfile host="app.diagrams.net" modified="2023-07-19T04:06:15.536Z" agent="Mozilla/5.0 (Windows NT 10.0; Win64; x64) AppleWebKit/537.36 (KHTML, like Gecko) Chrome/114.0.0.0 Safari/537.36" etag="RtqhMrHvsoVhw5xbrsZp" version="21.6.2" type="github">
  <diagram name="Page-1" id="Pktm7cOloWW2bJOD0Lta">
    <mxGraphModel dx="1232" dy="525" grid="1" gridSize="10" guides="1" tooltips="1" connect="1" arrows="1" fold="1" page="1" pageScale="1" pageWidth="850" pageHeight="1100" math="0" shadow="0">
      <root>
        <mxCell id="0" />
        <mxCell id="1" parent="0" />
        <mxCell id="jzJYhHAv_l02grlSd3NP-2" value="&lt;font style=&quot;font-size: 14px;&quot;&gt;Microservices Architecture&lt;/font&gt;" style="text;html=1;strokeColor=none;fillColor=none;align=center;verticalAlign=middle;whiteSpace=wrap;rounded=0;" parent="1" vertex="1">
          <mxGeometry x="335" y="70" width="200" height="30" as="geometry" />
        </mxCell>
        <mxCell id="jzJYhHAv_l02grlSd3NP-5" value="&lt;font style=&quot;font-size: 14px;&quot;&gt;Monolithic Architecture&lt;/font&gt;" style="text;html=1;strokeColor=none;fillColor=none;align=center;verticalAlign=middle;whiteSpace=wrap;rounded=0;" parent="1" vertex="1">
          <mxGeometry x="165" y="70" width="150" height="30" as="geometry" />
        </mxCell>
        <mxCell id="jzJYhHAv_l02grlSd3NP-6" value="&lt;font style=&quot;font-size: 14px;&quot;&gt;Cloud Server&lt;/font&gt;" style="text;html=1;strokeColor=none;fillColor=none;align=center;verticalAlign=middle;whiteSpace=wrap;rounded=0;" parent="1" vertex="1">
          <mxGeometry x="310" y="360" width="150" height="30" as="geometry" />
        </mxCell>
        <mxCell id="jzJYhHAv_l02grlSd3NP-7" value="&lt;font style=&quot;font-size: 14px;&quot;&gt;SOLID Principle&lt;/font&gt;" style="text;html=1;strokeColor=none;fillColor=none;align=center;verticalAlign=middle;whiteSpace=wrap;rounded=0;" parent="1" vertex="1">
          <mxGeometry x="275" y="40" width="150" height="30" as="geometry" />
        </mxCell>
        <mxCell id="jzJYhHAv_l02grlSd3NP-8" value="&lt;span style=&quot;font-size: 14px;&quot;&gt;Domain Driven Design&lt;/span&gt;" style="text;html=1;strokeColor=none;fillColor=none;align=center;verticalAlign=middle;whiteSpace=wrap;rounded=0;" parent="1" vertex="1">
          <mxGeometry x="425" y="240" width="150" height="30" as="geometry" />
        </mxCell>
        <mxCell id="jzJYhHAv_l02grlSd3NP-9" value="&lt;span style=&quot;font-size: 14px;&quot;&gt;Clean Architecture&lt;/span&gt;" style="text;html=1;strokeColor=none;fillColor=none;align=center;verticalAlign=middle;whiteSpace=wrap;rounded=0;" parent="1" vertex="1">
          <mxGeometry x="270" y="110" width="150" height="30" as="geometry" />
        </mxCell>
        <mxCell id="jzJYhHAv_l02grlSd3NP-10" value="&lt;font style=&quot;font-size: 14px;&quot;&gt;vertical slice architecture&lt;/font&gt;" style="text;html=1;strokeColor=none;fillColor=none;align=center;verticalAlign=middle;whiteSpace=wrap;rounded=0;" parent="1" vertex="1">
          <mxGeometry x="410" y="110" width="180" height="30" as="geometry" />
        </mxCell>
        <mxCell id="jzJYhHAv_l02grlSd3NP-12" value="&lt;font style=&quot;font-size: 14px;&quot;&gt;Three layer architecture&lt;/font&gt;" style="text;html=1;strokeColor=none;fillColor=none;align=center;verticalAlign=middle;whiteSpace=wrap;rounded=0;" parent="1" vertex="1">
          <mxGeometry x="100" y="110" width="180" height="30" as="geometry" />
        </mxCell>
        <mxCell id="jzJYhHAv_l02grlSd3NP-13" value="&lt;font style=&quot;font-size: 14px;&quot;&gt;SDLC&lt;/font&gt;" style="text;html=1;strokeColor=none;fillColor=none;align=center;verticalAlign=middle;whiteSpace=wrap;rounded=0;" parent="1" vertex="1">
          <mxGeometry x="240" y="10" width="200" height="30" as="geometry" />
        </mxCell>
        <mxCell id="jzJYhHAv_l02grlSd3NP-14" value="&lt;font style=&quot;font-size: 14px;&quot;&gt;Repository Pattern&lt;/font&gt;" style="text;html=1;strokeColor=none;fillColor=none;align=center;verticalAlign=middle;whiteSpace=wrap;rounded=0;" parent="1" vertex="1">
          <mxGeometry x="250" y="240" width="150" height="30" as="geometry" />
        </mxCell>
        <mxCell id="vhDsmQg7ZBNKj0Gx0PKl-1" value="&lt;font style=&quot;font-size: 14px;&quot;&gt;MVC Pattern&lt;/font&gt;" style="text;html=1;strokeColor=none;fillColor=none;align=center;verticalAlign=middle;whiteSpace=wrap;rounded=0;" parent="1" vertex="1">
          <mxGeometry x="110" y="240" width="110" height="30" as="geometry" />
        </mxCell>
        <mxCell id="vhDsmQg7ZBNKj0Gx0PKl-2" value="&lt;font style=&quot;font-size: 14px;&quot;&gt;ORM&lt;/font&gt;" style="text;html=1;strokeColor=none;fillColor=none;align=center;verticalAlign=middle;whiteSpace=wrap;rounded=0;" parent="1" vertex="1">
          <mxGeometry x="275" y="150" width="80" height="30" as="geometry" />
        </mxCell>
        <mxCell id="vhDsmQg7ZBNKj0Gx0PKl-3" value="&lt;font style=&quot;font-size: 14px;&quot;&gt;Rabbitmq&lt;/font&gt;" style="text;html=1;strokeColor=none;fillColor=none;align=center;verticalAlign=middle;whiteSpace=wrap;rounded=0;" parent="1" vertex="1">
          <mxGeometry x="265" y="410" width="200" height="30" as="geometry" />
        </mxCell>
        <mxCell id="vhDsmQg7ZBNKj0Gx0PKl-4" value="&lt;span style=&quot;font-size: 14px;&quot;&gt;gRPC&lt;/span&gt;" style="text;html=1;strokeColor=none;fillColor=none;align=center;verticalAlign=middle;whiteSpace=wrap;rounded=0;" parent="1" vertex="1">
          <mxGeometry x="165" y="410" width="200" height="30" as="geometry" />
        </mxCell>
        <mxCell id="vhDsmQg7ZBNKj0Gx0PKl-5" value="&lt;font style=&quot;font-size: 14px;&quot;&gt;Dapper&lt;/font&gt;" style="text;html=1;strokeColor=none;fillColor=none;align=center;verticalAlign=middle;whiteSpace=wrap;rounded=0;" parent="1" vertex="1">
          <mxGeometry x="180" y="190" width="100" height="30" as="geometry" />
        </mxCell>
        <mxCell id="vhDsmQg7ZBNKj0Gx0PKl-6" value="&lt;font style=&quot;font-size: 14px;&quot;&gt;API versioning&lt;/font&gt;" style="text;html=1;strokeColor=none;fillColor=none;align=center;verticalAlign=middle;whiteSpace=wrap;rounded=0;" parent="1" vertex="1">
          <mxGeometry x="250" y="320" width="200" height="30" as="geometry" />
        </mxCell>
        <mxCell id="vhDsmQg7ZBNKj0Gx0PKl-7" value="&lt;font style=&quot;font-size: 14px;&quot;&gt;RestFull api&lt;/font&gt;" style="text;html=1;strokeColor=none;fillColor=none;align=center;verticalAlign=middle;whiteSpace=wrap;rounded=0;" parent="1" vertex="1">
          <mxGeometry x="200" y="280" width="200" height="30" as="geometry" />
        </mxCell>
        <mxCell id="vhDsmQg7ZBNKj0Gx0PKl-8" value="&lt;font style=&quot;font-size: 14px;&quot;&gt;minimal api&lt;/font&gt;" style="text;html=1;strokeColor=none;fillColor=none;align=center;verticalAlign=middle;whiteSpace=wrap;rounded=0;" parent="1" vertex="1">
          <mxGeometry x="320" y="280" width="200" height="30" as="geometry" />
        </mxCell>
        <mxCell id="qL7fFzxsQ5jwUveeFpTR-1" value="&lt;font style=&quot;font-size: 14px;&quot;&gt;Plysical Server&lt;/font&gt;" style="text;html=1;strokeColor=none;fillColor=none;align=center;verticalAlign=middle;whiteSpace=wrap;rounded=0;" vertex="1" parent="1">
          <mxGeometry x="190" y="360" width="150" height="30" as="geometry" />
        </mxCell>
        <mxCell id="qL7fFzxsQ5jwUveeFpTR-4" value="&lt;font style=&quot;font-size: 14px;&quot;&gt;Entity Framework&lt;/font&gt;" style="text;html=1;strokeColor=none;fillColor=none;align=center;verticalAlign=middle;whiteSpace=wrap;rounded=0;" vertex="1" parent="1">
          <mxGeometry x="330" y="190" width="135" height="30" as="geometry" />
        </mxCell>
      </root>
    </mxGraphModel>
  </diagram>
</mxfile>
